HIERARCHY
ROOT SpineBase
{
  OFFSET 0.000000 0.000000 0.000000
  CHANNELS 6 Xposition Yposition Zposition Zrotation Xrotation Yrotation
  JOINT SpineMid
  {
    OFFSET 0.000000 30.572656 0.000000
    CHANNELS 3 Zrotation Xrotation Yrotation
    JOINT SpineShoulder
    {
      OFFSET -0.053629 22.742971 -0.775383
      CHANNELS 3 Zrotation Xrotation Yrotation
      JOINT Neck
      {
        OFFSET -0.055301 7.538132 -0.584685
        CHANNELS 3 Zrotation Xrotation Yrotation
        JOINT Head
        {
          OFFSET -3.356605 14.162762 0.085980
          CHANNELS 3 Zrotation Xrotation Yrotation
          End Site
          {
            OFFSET 0 0 0
          }
        }
      }
      JOINT ShoulderLeft
      {
        OFFSET -16.152493 -4.066991 9.341725
        CHANNELS 3 Zrotation Xrotation Yrotation
        JOINT ElbowLeft
        {
          OFFSET -2.289642 -28.709203 3.965185
          CHANNELS 3 Zrotation Xrotation Yrotation
          JOINT WristLeft
          {
            OFFSET 0.988323 -22.387730 -7.346141
            CHANNELS 3 Zrotation Xrotation Yrotation
            JOINT HandLeft
            {
              OFFSET 1.042737 -2.187867 -1.289962
              CHANNELS 3 Zrotation Xrotation Yrotation
              JOINT HandTipLeft
              {
                OFFSET 1.775652 -7.826847 -0.884022
                CHANNELS 3 Zrotation Xrotation Yrotation
                End Site
                {
                  OFFSET 0 0 0
                }
              }
              JOINT ThumbLeft
              {
                OFFSET 3.188190 1.973249 -3.111182
                CHANNELS 3 Zrotation Xrotation Yrotation
                End Site
                {
                  OFFSET 0 0 0
                }
              }
            }
          }
        }
      }
      JOINT ShoulderRight
      {
        OFFSET 13.919790 -2.569915 -11.376694
        CHANNELS 3 Zrotation Xrotation Yrotation
        JOINT ElbowRight
        {
          OFFSET 6.596699 -24.024604 -4.308021
          CHANNELS 3 Zrotation Xrotation Yrotation
          JOINT WristRight
          {
            OFFSET -3.214140 -22.399097 -6.664451
            CHANNELS 3 Zrotation Xrotation Yrotation
            JOINT HandRight
            {
              OFFSET -1.141343 -6.344657 0.073600
              CHANNELS 3 Zrotation Xrotation Yrotation
              JOINT HandTipRight
              {
                OFFSET -2.352677 -6.776595 -1.230341
                CHANNELS 3 Zrotation Xrotation Yrotation
                End Site
                {
                  OFFSET 0 0 0
                }
              }
              JOINT ThumbRight
              {
                OFFSET 3.629195 -0.545381 -1.502222
                CHANNELS 3 Zrotation Xrotation Yrotation
                End Site
                {
                  OFFSET 0 0 0
                }
              }
            }
          }
        }
      }
    }
  }
  JOINT HipLeft
  {
    OFFSET -7.045017 0.336052 0.047356
    CHANNELS 3 Zrotation Xrotation Yrotation
    JOINT KneeLeft
    {
      OFFSET 6.659190 -33.331761 8.142426
      CHANNELS 3 Zrotation Xrotation Yrotation
      JOINT AnkleLeft
      {
        OFFSET 8.699372 -30.603782 7.718736
        CHANNELS 3 Zrotation Xrotation Yrotation
        JOINT FootLeft
        {
          OFFSET -5.115495 -2.571722 -10.036764
          CHANNELS 3 Zrotation Xrotation Yrotation
          End Site
          {
            OFFSET 0 0 0
          }
        }
      }
    }
  }
  JOINT HipRight
  {
    OFFSET 6.204355 1.705263 -6.894627
    CHANNELS 3 Zrotation Xrotation Yrotation
    JOINT KneeRight
    {
      OFFSET 8.108997 -30.380024 -0.529199
      CHANNELS 3 Zrotation Xrotation Yrotation
      JOINT AnkleRight
      {
        OFFSET 5.975069 -33.252933 8.425939
        CHANNELS 3 Zrotation Xrotation Yrotation
        JOINT FootRight
        {
          OFFSET -4.991432 -3.012297 -9.506343
          CHANNELS 3 Zrotation Xrotation Yrotation
          End Site
          {
            OFFSET 0 0 0
          }
        }
      }
    }
  }
}
MOTION
Frames: 11
Frame Time: 0.033333
44.634232 69.201789 326.365182 2.310088 -1.073553 10.975197 -0.054363 -0.392259 -10.869982 0.167905 -0.226776 0.108003 -7.217159 -6.240642 -2.212397 0.000000 0.000000 0.000000 -3.326401 -1.976466 0.033067 2.913697 -2.261903 -1.199875 -2.072438 2.392835 -0.670926 3.583062 4.241476 1.214596 0.000000 0.000000 0.000000 0.000000 0.000000 0.000000 58.926917 -1.373525 -11.504267 0.279226 49.220788 -45.863331 -22.263143 5.138997 -7.957297 20.662845 -7.542662 0.619187 0.000000 0.000000 0.000000 0.000000 0.000000 0.000000 -4.486156 1.211223 -11.585899 2.409850 -1.507310 0.075956 5.565252 -2.366552 -16.165965 0.000000 0.000000 0.000000 -6.276495 4.492266 -10.042013 3.914685 -1.617279 -0.688715 6.567799 -4.128847 -14.702615 0.000000 0.000000 0.000000
44.688235 69.317124 326.140056 2.452343 -1.651981 9.966388 0.047613 -0.496833 -9.839399 0.182409 -0.225678 0.116018 -8.511496 -6.260245 -2.380562 0.000000 0.000000 0.000000 -3.950068 -1.906758 0.042038 3.456796 -2.202481 -1.319358 -3.243224 1.599958 -0.545015 3.246082 6.594961 1.617317 0.000000 0.000000 0.000000 0.000000 0.000000 0.000000 65.015679 -1.846840 -13.043849 14.837428 47.504441 -63.130652 -23.051407 8.987472 -12.034897 17.557970 -9.077741 -1.744435 0.000000 0.000000 0.000000 0.000000 0.000000 0.000000 -4.630745 1.710109 -10.552346 2.359317 -1.897466 -0.052985 4.197421 2.655299 -16.667083 0.000000 0.000000 0.000000 -6.494672 4.794332 -9.017921 3.689471 -1.408548 -0.723267 7.434868 -5.433792 -14.863857 0.000000 0.000000 0.000000
44.752258 69.431746 325.891613 2.560362 -2.281015 9.244671 0.104107 -0.541488 -9.098350 0.144325 -0.199097 0.116454 -9.043700 -5.978489 -2.416466 0.000000 0.000000 0.000000 -4.252146 -1.421743 0.057552 3.600260 -2.565429 -1.324731 -1.166028 -0.284604 -3.089478 -1.839457 8.852796 4.764299 0.000000 0.000000 0.000000 0.000000 0.000000 0.000000 69.803506 -1.834480 -14.508300 23.652420 44.431354 -74.665048 -16.662400 13.920505 -12.015803 9.946966 -13.371207 -9.751702 0.000000 0.000000 0.000000 0.000000 0.000000 0.000000 -4.824523 2.273444 -9.817899 2.380998 -2.216206 -0.147248 4.312231 3.439976 -17.111004 0.000000 0.000000 0.000000 -6.683691 5.348437 -8.215179 3.524463 -1.567710 -0.832687 7.970784 -5.749345 -14.997435 0.000000 0.000000 0.000000
44.796753 69.552882 325.625711 2.614219 -2.934524 8.996568 0.102823 -0.521230 -8.835310 0.082671 -0.166259 0.110908 -8.599196 -5.771606 -2.438979 0.000000 0.000000 0.000000 -3.872586 -1.802443 0.202308 2.829915 -1.934672 -1.347525 3.495451 -3.614735 -7.778545 -6.689902 13.607605 9.925630 0.000000 0.000000 0.000000 0.000000 0.000000 0.000000 73.359975 -0.037905 -16.424997 31.465759 36.245657 -80.142345 -21.900214 13.395269 -19.641261 9.972504 -10.083556 -14.060167 0.000000 0.000000 0.000000 0.000000 0.000000 0.000000 -4.927533 2.788585 -9.564934 2.438818 -2.264167 -0.164148 4.958250 1.547491 -16.405266 0.000000 0.000000 0.000000 -6.743784 6.046925 -7.859739 3.392289 -1.940202 -0.970680 7.958952 -5.153499 -14.393566 0.000000 0.000000 0.000000
44.816437 69.660996 325.364681 2.620274 -3.566945 9.339521 0.073985 -0.472288 -9.167123 0.027751 -0.142275 0.103428 -7.411605 -5.827047 -2.525014 0.000000 0.000000 0.000000 -3.083345 -2.688548 0.423312 1.643150 -0.360249 -1.379861 10.227591 -10.853847 -14.974703 -17.532350 16.981069 19.295885 0.000000 0.000000 0.000000 0.000000 0.000000 0.000000 75.219126 4.073332 -18.948178 35.281550 29.141520 -78.911778 -19.365545 16.539198 -22.709884 8.357677 -9.249102 -21.516768 0.000000 0.000000 0.000000 0.000000 0.000000 0.000000 -4.900255 3.142115 -9.925591 2.299139 -1.896800 -0.128476 4.873283 1.333870 -14.864640 0.000000 0.000000 0.000000 -6.625774 6.745989 -8.116615 3.267851 -2.372820 -1.095303 7.395882 -3.704561 -13.188961 0.000000 0.000000 0.000000
44.800014 69.762860 325.145886 2.573436 -4.109389 10.194193 0.014797 -0.418942 -10.015897 -0.017738 -0.129737 0.093969 -5.598607 -5.935642 -2.613431 0.000000 0.000000 0.000000 -2.084952 -3.683702 0.668328 -0.249206 0.830818 -1.158123 24.056631 -14.379744 -23.352773 -33.422382 11.840452 29.064268 0.000000 0.000000 0.000000 0.000000 0.000000 0.000000 75.691434 9.644179 -21.632998 36.394651 25.215705 -74.633814 -5.953812 24.175850 -14.623143 6.602641 -13.957160 -30.753472 0.000000 0.000000 0.000000 0.000000 0.000000 0.000000 -4.766004 3.405233 -10.808145 2.154721 -1.302711 -0.028391 3.682319 2.833934 -11.889289 0.000000 0.000000 0.000000 -6.348182 7.475265 -8.884809 3.236018 -2.970471 -1.218546 6.305469 -1.462300 -11.726500 0.000000 0.000000 0.000000
44.774847 69.838879 324.990684 2.517323 -4.507898 11.869202 -0.044594 -0.395604 -11.687744 -0.033060 -0.132822 0.086793 -3.521648 -6.293787 -2.755088 0.000000 0.000000 0.000000 -1.168391 -4.900086 0.922237 -2.064297 1.290753 -0.925084 29.235748 -16.299830 -27.245507 -38.170751 9.233716 32.450126 0.000000 0.000000 0.000000 0.000000 0.000000 0.000000 75.276619 17.391932 -24.712080 37.590940 22.671764 -69.728578 2.577214 27.812253 0.898687 10.559205 -14.341091 -37.506097 0.000000 0.000000 0.000000 0.000000 0.000000 0.000000 -4.683599 3.725727 -12.519224 2.295365 -0.721032 0.148716 3.442820 1.475957 -9.254352 0.000000 0.000000 0.000000 -5.857979 8.136589 -10.507940 3.268697 -3.639274 -1.308235 4.625336 1.291314 -9.629408 0.000000 0.000000 0.000000
44.759870 69.878545 324.872180 2.429895 -4.888757 14.565771 -0.079094 -0.383536 -14.384050 -0.024843 -0.120876 0.080408 -1.221970 -6.010200 -2.743750 0.000000 0.000000 0.000000 -0.391479 -5.880893 1.144685 -3.510684 0.687206 -0.784505 29.426303 -15.363379 -28.610566 -40.231923 9.840314 33.678413 0.000000 0.000000 0.000000 0.000000 0.000000 0.000000 71.773389 28.021242 -27.186844 39.985369 22.144327 -64.174487 7.470430 29.569491 16.285208 3.196720 -17.206406 -49.675872 0.000000 0.000000 0.000000 0.000000 0.000000 0.000000 -4.677624 4.092146 -15.296916 2.716439 0.143044 0.463691 4.928785 -3.864644 -7.211802 0.000000 0.000000 0.000000 -5.100520 8.653300 -13.237346 3.224083 -4.039157 -1.331464 2.607240 4.326340 -7.295441 0.000000 0.000000 0.000000
44.717807 69.756271 324.788373 2.284289 -5.439739 17.693931 -0.091868 -0.418569 -17.514018 0.002677 -0.123057 0.072749 1.022989 -4.950245 -2.649801 0.000000 0.000000 0.000000 0.341938 -6.638059 1.363100 -4.603226 0.227410 -0.743311 23.522872 -9.519367 -24.740700 -32.431334 9.640568 27.708654 0.000000 0.000000 0.000000 0.000000 0.000000 0.000000 68.799112 40.121486 -29.889527 38.522627 24.261247 -59.358167 12.090993 28.918466 33.092213 -0.239557 -17.924361 -48.080586 0.000000 0.000000 0.000000 0.000000 0.000000 0.000000 -4.385473 4.554097 -18.488793 3.019796 1.155020 0.786784 6.300129 -8.952608 -4.208995 0.000000 0.000000 0.000000 -4.061415 9.198298 -16.444252 3.099584 -4.201381 -1.301422 2.400137 1.602039 -2.605827 0.000000 0.000000 0.000000
44.819850 69.757458 324.630766 2.276196 -5.917036 22.032769 -0.081234 -0.437070 -21.846049 0.021512 -0.129642 0.072581 2.600366 -3.446805 -2.500284 0.000000 0.000000 0.000000 0.649040 -7.373832 1.530454 -5.356639 -0.451150 -0.714851 10.206920 -7.393601 -17.422302 -19.128831 15.835723 20.606163 0.000000 0.000000 0.000000 0.000000 0.000000 0.000000 61.532246 52.750381 -29.290604 32.445217 27.784227 -53.048542 13.629291 33.537536 15.503419 11.206008 -18.810086 -15.348586 0.000000 0.000000 0.000000 0.000000 0.000000 0.000000 -4.363078 5.406862 -22.891856 3.725240 2.598921 1.343775 5.894147 -11.360800 0.462553 0.000000 0.000000 0.000000 -3.143744 9.307218 -20.983808 3.017032 -3.834044 -1.151812 1.449458 1.082881 1.269691 0.000000 0.000000 0.000000
45.048349 69.834354 324.447850 2.386663 -6.223563 26.737776 -0.094921 -0.431652 -26.536365 0.021821 -0.122216 0.076688 3.923376 -1.765708 -2.316408 0.000000 0.000000 0.000000 0.551445 -9.783349 1.808551 -5.730471 0.029278 -0.704448 -2.479502 10.702671 0.935769 -1.867904 2.348550 -0.035117 0.000000 0.000000 0.000000 0.000000 0.000000 0.000000 44.786073 62.953663 -19.744728 26.845512 26.815626 -43.094533 11.357447 35.325694 -0.761004 27.291249 -8.146298 15.455796 0.000000 0.000000 0.000000 0.000000 0.000000 0.000000 -4.829741 6.305005 -27.734921 4.670184 2.851303 1.591564 6.984883 -14.150296 4.727705 0.000000 0.000000 0.000000 -2.560755 9.101731 -25.922262 3.105910 -3.085413 -0.904231 0.604483 0.392759 4.678993 0.000000 0.000000 0.000000
